#tb 0: 2/25
#media_type 0: video
#codec_id 0: rawvideo
#dimensions 0: 100x70
#sar 0: 0/1
0,          0,          0,        1,    28000, 0x2023ba6e
0,          1,          1,        1,    28000, 0x4292b778
0,          2,          2,        1,    28000, 0x9772a187
0,          3,          3,        1,    28000, 0xa98d8d04
0,          4,          4,        1,    28000, 0xd323b6af
0,          5,          5,        1,    28000, 0x508aba99
0,          6,          6,        1,    28000, 0x5c672dda
0,          7,          7,        1,    28000, 0xcc992d59
0,          8,          8,       12,    28000, 0x82460e1b
0,         21,         21,        1,    28000, 0x3debbfc9
0,         22,         22,        1,    28000, 0x427ab31f
0,         23,         23,        1,    28000, 0x6bbdec2e
0,         24,         24,        1,    28000, 0x5690b56b
0,         25,         25,        1,    28000, 0xb62963f3
0,         26,         26,        1,    28000, 0x68dd37b2
0,         27,         27,        1,    28000, 0x465c47d2
0,         28,         28,      124,    28000, 0x465c47d2
